<?xml version="1.0" encoding="UTF-8"?>
<svg id="Camada_1" data-name="Camada 1" xmlns="http://www.w3.org/2000/svg" viewBox="0 0 1920 1080">
  <defs>
    <style>
      .cls-1 {
        fill: #fb743e;
      }
    </style>
  </defs>
  <g>
    <path class="cls-1" d="M546.14,863.92h84.38c15.26,0,25.78-15.29,20.33-29.54L419.76,230.07c-3.22-8.43-11.31-13.99-20.33-13.99h-47.57c-9.02,0-17.11,5.57-20.33,13.99L100.44,834.38c-5.45,14.25,5.07,29.54,20.33,29.54h84.38c9.25,0,17.48-5.84,20.54-14.57l26.17-74.68c3.06-8.73,11.3-14.57,20.54-14.57h206.47c9.25,0,17.48,5.84,20.54,14.57l26.17,74.68c3.06,8.73,11.3,14.57,20.54,14.57ZM308.34,613.51l46.76-133.42c6.81-19.42,34.28-19.42,41.08,0l46.76,133.42c4.96,14.15-5.54,28.97-20.54,28.97h-93.51c-15,0-25.5-14.81-20.54-28.97Z"/>
    <path class="cls-1" d="M1714.85,863.92h84.38c15.26,0,25.78-15.29,20.33-29.54l-231.09-604.31c-3.22-8.43-11.31-13.99-20.33-13.99h-47.57c-9.02,0-17.11,5.57-20.33,13.99l-231.08,604.31c-5.45,14.25,5.07,29.54,20.33,29.54h84.38c9.25,0,17.48-5.84,20.54-14.57l26.17-74.68c3.06-8.73,11.3-14.57,20.54-14.57h206.47c9.25,0,17.48,5.84,20.54,14.57l26.17,74.68c3.06,8.73,11.3,14.57,20.54,14.57ZM1477.05,613.51l46.76-133.42c6.81-19.42,34.28-19.42,41.08,0l46.76,133.42c4.96,14.15-5.54,28.97-20.54,28.97h-93.51c-15,0-25.5-14.81-20.54-28.97Z"/>
    <path class="cls-1" d="M807.07,389.12c9.37,0,16.97,6.73,16.97,15.02v347.78c0,8.06,2.64,14.37,7.93,18.94,5.28,4.57,126.01,2.87,135.85,2.87h0c9.37,0,16.97,6.73,16.97,15.02v60.15c0,8.3-7.6,15.02-16.97,15.02h-147.83c-30.74,0-54.59-7.84-71.54-23.51-16.97-15.68-25.45-37.77-25.45-66.29v-369.98c0-8.3,7.6-15.02,16.97-15.02h67.12Z"/>
    <path class="cls-1" d="M1141.44,640.74l79.5-227.61c4.71-14.33,18.09-24.02,33.17-24.02h49.17c24.39,0,41.27,24.37,32.69,47.2l-152.15,404.97c-5.12,13.62-18.14,22.64-32.69,22.64h-40.37c-14.55,0-27.57-9.02-32.69-22.64l-152.15-404.97c-8.58-22.83,8.3-47.2,32.69-47.2h49.17c15.08,0,28.46,9.69,33.17,24.02l70.34,227.61c4.89,12.77,25.89,12.41,30.14,0Z"/>
  </g>
  <text/>
</svg>